<mxfile host="app.diagrams.net" modified="2023-12-15T13:12:59.399Z" agent="Mozilla/5.0 (Windows NT 10.0; Win64; x64) AppleWebKit/537.36 (KHTML, like Gecko) Chrome/120.0.0.0 Safari/537.36" etag="2uIa-QktnYdDpO-T7V2K" version="22.1.9" type="device">
  <diagram name="Page-1" id="DchtPudwyiVh3QbcWMH3">
    <mxGraphModel dx="1434" dy="738" grid="1" gridSize="10" guides="1" tooltips="1" connect="1" arrows="1" fold="1" page="1" pageScale="1" pageWidth="850" pageHeight="1100" math="0" shadow="0">
      <root>
        <mxCell id="0" />
        <mxCell id="1" parent="0" />
        <mxCell id="ITvH7nyaOIZYTNdUo5Rh-11" style="edgeStyle=orthogonalEdgeStyle;rounded=0;orthogonalLoop=1;jettySize=auto;html=1;" parent="1" source="ITvH7nyaOIZYTNdUo5Rh-2" target="ITvH7nyaOIZYTNdUo5Rh-6" edge="1">
          <mxGeometry relative="1" as="geometry" />
        </mxCell>
        <mxCell id="ITvH7nyaOIZYTNdUo5Rh-12" value="Event" style="edgeLabel;html=1;align=center;verticalAlign=middle;resizable=0;points=[];" parent="ITvH7nyaOIZYTNdUo5Rh-11" vertex="1" connectable="0">
          <mxGeometry x="-0.6333" y="-1" relative="1" as="geometry">
            <mxPoint x="38" y="-11" as="offset" />
          </mxGeometry>
        </mxCell>
        <mxCell id="ITvH7nyaOIZYTNdUo5Rh-2" value="Watcher" style="rounded=1;whiteSpace=wrap;html=1;" parent="1" vertex="1">
          <mxGeometry x="80" y="160" width="120" height="60" as="geometry" />
        </mxCell>
        <mxCell id="ITvH7nyaOIZYTNdUo5Rh-10" style="rounded=0;orthogonalLoop=1;jettySize=auto;html=1;entryX=0.5;entryY=0;entryDx=0;entryDy=0;startArrow=classic;startFill=1;" parent="1" source="ITvH7nyaOIZYTNdUo5Rh-3" target="ITvH7nyaOIZYTNdUo5Rh-2" edge="1">
          <mxGeometry relative="1" as="geometry" />
        </mxCell>
        <mxCell id="ITvH7nyaOIZYTNdUo5Rh-14" value="Monitor Cluster" style="edgeLabel;html=1;align=center;verticalAlign=middle;resizable=0;points=[];" parent="ITvH7nyaOIZYTNdUo5Rh-10" vertex="1" connectable="0">
          <mxGeometry x="0.1143" y="-3" relative="1" as="geometry">
            <mxPoint x="3" y="-9" as="offset" />
          </mxGeometry>
        </mxCell>
        <mxCell id="ITvH7nyaOIZYTNdUo5Rh-3" value="Python Kubernetes library" style="rounded=1;whiteSpace=wrap;html=1;fillColor=#dae8fc;strokeColor=#6c8ebf;" parent="1" vertex="1">
          <mxGeometry x="80" y="30" width="120" height="60" as="geometry" />
        </mxCell>
        <mxCell id="ITvH7nyaOIZYTNdUo5Rh-25" style="edgeStyle=orthogonalEdgeStyle;rounded=0;orthogonalLoop=1;jettySize=auto;html=1;exitX=1;exitY=0.5;exitDx=0;exitDy=0;startArrow=classic;startFill=1;entryX=0;entryY=0.5;entryDx=0;entryDy=0;" parent="1" source="ITvH7nyaOIZYTNdUo5Rh-4" target="ITvH7nyaOIZYTNdUo5Rh-9" edge="1">
          <mxGeometry relative="1" as="geometry">
            <mxPoint x="780.0285714285715" y="350" as="targetPoint" />
          </mxGeometry>
        </mxCell>
        <mxCell id="ITvH7nyaOIZYTNdUo5Rh-34" value="Reachability matrix" style="edgeLabel;html=1;align=center;verticalAlign=middle;resizable=0;points=[];" parent="ITvH7nyaOIZYTNdUo5Rh-25" vertex="1" connectable="0">
          <mxGeometry x="-0.2265" y="-1" relative="1" as="geometry">
            <mxPoint x="16" y="-1" as="offset" />
          </mxGeometry>
        </mxCell>
        <mxCell id="ITvH7nyaOIZYTNdUo5Rh-4" value="Kubernetes Information Cluster (KIC)" style="rounded=1;whiteSpace=wrap;html=1;" parent="1" vertex="1">
          <mxGeometry x="320" y="270" width="120" height="50" as="geometry" />
        </mxCell>
        <mxCell id="ITvH7nyaOIZYTNdUo5Rh-5" value="Security Group Information Cluster (SGIC)" style="rounded=1;whiteSpace=wrap;html=1;fillColor=#f8cecc;strokeColor=#b85450;" parent="1" vertex="1">
          <mxGeometry x="580" y="160" width="120" height="60" as="geometry" />
        </mxCell>
        <mxCell id="ITvH7nyaOIZYTNdUo5Rh-17" style="edgeStyle=orthogonalEdgeStyle;rounded=0;orthogonalLoop=1;jettySize=auto;html=1;startArrow=classic;startFill=1;" parent="1" source="ITvH7nyaOIZYTNdUo5Rh-6" target="ITvH7nyaOIZYTNdUo5Rh-4" edge="1">
          <mxGeometry relative="1" as="geometry">
            <Array as="points">
              <mxPoint x="380" y="250" />
              <mxPoint x="380" y="250" />
            </Array>
          </mxGeometry>
        </mxCell>
        <mxCell id="ITvH7nyaOIZYTNdUo5Rh-28" value="Reachability updates" style="edgeLabel;html=1;align=center;verticalAlign=middle;resizable=0;points=[];" parent="ITvH7nyaOIZYTNdUo5Rh-17" vertex="1" connectable="0">
          <mxGeometry x="0.0804" y="1" relative="1" as="geometry">
            <mxPoint y="-4" as="offset" />
          </mxGeometry>
        </mxCell>
        <mxCell id="ITvH7nyaOIZYTNdUo5Rh-18" value="Conflict detection" style="edgeStyle=orthogonalEdgeStyle;rounded=0;orthogonalLoop=1;jettySize=auto;html=1;entryX=0;entryY=0.5;entryDx=0;entryDy=0;startArrow=classic;startFill=1;" parent="1" source="ITvH7nyaOIZYTNdUo5Rh-6" target="ITvH7nyaOIZYTNdUo5Rh-5" edge="1">
          <mxGeometry relative="1" as="geometry" />
        </mxCell>
        <mxCell id="ITvH7nyaOIZYTNdUo5Rh-6" value="Analyzer" style="rounded=1;whiteSpace=wrap;html=1;fillColor=#fff2cc;strokeColor=#d6b656;" parent="1" vertex="1">
          <mxGeometry x="320" y="160" width="120" height="60" as="geometry" />
        </mxCell>
        <mxCell id="ITvH7nyaOIZYTNdUo5Rh-15" style="edgeStyle=orthogonalEdgeStyle;rounded=0;orthogonalLoop=1;jettySize=auto;html=1;startArrow=classic;startFill=1;" parent="1" source="ITvH7nyaOIZYTNdUo5Rh-7" target="ITvH7nyaOIZYTNdUo5Rh-6" edge="1">
          <mxGeometry relative="1" as="geometry">
            <Array as="points">
              <mxPoint x="380" y="120" />
              <mxPoint x="380" y="120" />
            </Array>
          </mxGeometry>
        </mxCell>
        <mxCell id="ITvH7nyaOIZYTNdUo5Rh-16" value="Event =&amp;gt; Object" style="edgeLabel;html=1;align=center;verticalAlign=middle;resizable=0;points=[];" parent="ITvH7nyaOIZYTNdUo5Rh-15" vertex="1" connectable="0">
          <mxGeometry x="-0.0571" y="-3" relative="1" as="geometry">
            <mxPoint x="3" as="offset" />
          </mxGeometry>
        </mxCell>
        <mxCell id="ITvH7nyaOIZYTNdUo5Rh-7" value="Parser" style="rounded=1;whiteSpace=wrap;html=1;" parent="1" vertex="1">
          <mxGeometry x="320" y="30" width="120" height="60" as="geometry" />
        </mxCell>
        <mxCell id="ITvH7nyaOIZYTNdUo5Rh-29" style="edgeStyle=orthogonalEdgeStyle;rounded=0;orthogonalLoop=1;jettySize=auto;html=1;entryX=0;entryY=0.5;entryDx=0;entryDy=0;startArrow=classic;startFill=1;" parent="1" source="ITvH7nyaOIZYTNdUo5Rh-8" target="ITvH7nyaOIZYTNdUo5Rh-4" edge="1">
          <mxGeometry relative="1" as="geometry" />
        </mxCell>
        <mxCell id="ITvH7nyaOIZYTNdUo5Rh-33" value="Network policies" style="edgeLabel;html=1;align=center;verticalAlign=middle;resizable=0;points=[];" parent="ITvH7nyaOIZYTNdUo5Rh-29" vertex="1" connectable="0">
          <mxGeometry x="-0.1452" y="1" relative="1" as="geometry">
            <mxPoint as="offset" />
          </mxGeometry>
        </mxCell>
        <mxCell id="ITvH7nyaOIZYTNdUo5Rh-8" value="LabelTree" style="rounded=1;whiteSpace=wrap;html=1;" parent="1" vertex="1">
          <mxGeometry x="80" y="270" width="120" height="50" as="geometry" />
        </mxCell>
        <mxCell id="ITvH7nyaOIZYTNdUo5Rh-9" value="Model" style="rounded=1;whiteSpace=wrap;html=1;" parent="1" vertex="1">
          <mxGeometry x="580" y="265" width="120" height="60" as="geometry" />
        </mxCell>
      </root>
    </mxGraphModel>
  </diagram>
</mxfile>
